<?xml version="1.0" encoding="UTF-8" standalone="no"?>
<!DOCTYPE svg PUBLIC "-//W3C//DTD SVG 1.1//EN"
 "http://www.w3.org/Graphics/SVG/1.1/DTD/svg11.dtd">
<!-- Generated by graphviz version 2.43.0 (0)
 -->
<!-- Title: %3 Pages: 1 -->
<svg width="792pt" height="286pt"
 viewBox="0.00 0.00 791.76 285.91" xmlns="http://www.w3.org/2000/svg" xmlns:xlink="http://www.w3.org/1999/xlink">
<g id="graph0" class="graph" transform="scale(1 1) rotate(0) translate(4 281.91)">
<title>%3</title>
<polygon fill="white" stroke="transparent" points="-4,4 -4,-281.91 787.76,-281.91 787.76,4 -4,4"/>
<g id="clust1" class="cluster">
<title>cluster25</title>
<path fill="none" stroke="black" d="M289.76,-61C289.76,-61 763.76,-61 763.76,-61 769.76,-61 775.76,-67 775.76,-73 775.76,-73 775.76,-162.95 775.76,-162.95 775.76,-168.95 769.76,-174.95 763.76,-174.95 763.76,-174.95 289.76,-174.95 289.76,-174.95 283.76,-174.95 277.76,-168.95 277.76,-162.95 277.76,-162.95 277.76,-73 277.76,-73 277.76,-67 283.76,-61 289.76,-61"/>
<text text-anchor="middle" x="758.26" y="-68.8" font-family="Times,serif" font-size="14.00">25</text>
</g>
<!-- phi_mu -->
<g id="node1" class="node">
<title>phi_mu</title>
<ellipse fill="none" stroke="black" cx="356.76" cy="-240.43" rx="48.17" ry="37.45"/>
<text text-anchor="middle" x="356.76" y="-251.73" font-family="Times,serif" font-size="14.00">phi_mu</text>
<text text-anchor="middle" x="356.76" y="-236.73" font-family="Times,serif" font-size="14.00">~</text>
<text text-anchor="middle" x="356.76" y="-221.73" font-family="Times,serif" font-size="14.00">Beta</text>
</g>
<!-- stoiip_stb -->
<g id="node6" class="node">
<title>stoiip_stb</title>
<polygon fill="none" stroke="black" points="267.76,-155.98 153.76,-155.98 153.76,-102.98 267.76,-102.98 267.76,-155.98"/>
<text text-anchor="middle" x="210.76" y="-140.78" font-family="Times,serif" font-size="14.00">stoiip_stb</text>
<text text-anchor="middle" x="210.76" y="-125.78" font-family="Times,serif" font-size="14.00">~</text>
<text text-anchor="middle" x="210.76" y="-110.78" font-family="Times,serif" font-size="14.00">Deterministic</text>
</g>
<!-- phi_mu&#45;&gt;stoiip_stb -->
<g id="edge4" class="edge">
<title>phi_mu&#45;&gt;stoiip_stb</title>
<path fill="none" stroke="black" d="M322.53,-213.89C301.83,-198.44 275.27,-178.61 253.23,-162.17"/>
<polygon fill="black" stroke="black" points="255.14,-159.23 245.03,-156.05 250.95,-164.84 255.14,-159.23"/>
</g>
<!-- porosity_obs -->
<g id="node9" class="node">
<title>porosity_obs</title>
<ellipse fill="lightgrey" stroke="black" cx="361.76" cy="-129.48" rx="75.82" ry="37.45"/>
<text text-anchor="middle" x="361.76" y="-140.78" font-family="Times,serif" font-size="14.00">porosity_obs</text>
<text text-anchor="middle" x="361.76" y="-125.78" font-family="Times,serif" font-size="14.00">~</text>
<text text-anchor="middle" x="361.76" y="-110.78" font-family="Times,serif" font-size="14.00">Normal</text>
</g>
<!-- phi_mu&#45;&gt;porosity_obs -->
<g id="edge1" class="edge">
<title>phi_mu&#45;&gt;porosity_obs</title>
<path fill="none" stroke="black" d="M358.44,-202.85C358.81,-194.67 359.22,-185.89 359.61,-177.37"/>
<polygon fill="black" stroke="black" points="363.12,-177.3 360.08,-167.15 356.12,-176.98 363.12,-177.3"/>
</g>
<!-- bo -->
<g id="node2" class="node">
<title>bo</title>
<ellipse fill="none" stroke="black" cx="215.76" cy="-240.43" rx="65.52" ry="37.45"/>
<text text-anchor="middle" x="215.76" y="-251.73" font-family="Times,serif" font-size="14.00">bo</text>
<text text-anchor="middle" x="215.76" y="-236.73" font-family="Times,serif" font-size="14.00">~</text>
<text text-anchor="middle" x="215.76" y="-221.73" font-family="Times,serif" font-size="14.00">Lognormal</text>
</g>
<!-- bo&#45;&gt;stoiip_stb -->
<g id="edge5" class="edge">
<title>bo&#45;&gt;stoiip_stb</title>
<path fill="none" stroke="black" d="M214.08,-202.85C213.54,-191.11 212.95,-178.12 212.41,-166.43"/>
<polygon fill="black" stroke="black" points="215.89,-165.96 211.94,-156.13 208.9,-166.28 215.89,-165.96"/>
</g>
<!-- sw_mu -->
<g id="node3" class="node">
<title>sw_mu</title>
<ellipse fill="none" stroke="black" cx="486.76" cy="-240.43" rx="45.92" ry="37.45"/>
<text text-anchor="middle" x="486.76" y="-251.73" font-family="Times,serif" font-size="14.00">sw_mu</text>
<text text-anchor="middle" x="486.76" y="-236.73" font-family="Times,serif" font-size="14.00">~</text>
<text text-anchor="middle" x="486.76" y="-221.73" font-family="Times,serif" font-size="14.00">Beta</text>
</g>
<!-- sw_mu&#45;&gt;stoiip_stb -->
<g id="edge6" class="edge">
<title>sw_mu&#45;&gt;stoiip_stb</title>
<path fill="none" stroke="black" d="M449.32,-218.34C438.15,-212.7 425.69,-207.04 413.76,-202.95 353.74,-182.37 332.06,-200.02 273.76,-174.95 265.72,-171.49 257.67,-166.9 250.15,-161.98"/>
<polygon fill="black" stroke="black" points="251.81,-158.87 241.59,-156.09 247.85,-164.64 251.81,-158.87"/>
</g>
<!-- sw_obs -->
<g id="node8" class="node">
<title>sw_obs</title>
<ellipse fill="lightgrey" stroke="black" cx="504.76" cy="-129.48" rx="49.49" ry="37.45"/>
<text text-anchor="middle" x="504.76" y="-140.78" font-family="Times,serif" font-size="14.00">sw_obs</text>
<text text-anchor="middle" x="504.76" y="-125.78" font-family="Times,serif" font-size="14.00">~</text>
<text text-anchor="middle" x="504.76" y="-110.78" font-family="Times,serif" font-size="14.00">Normal</text>
</g>
<!-- sw_mu&#45;&gt;sw_obs -->
<g id="edge2" class="edge">
<title>sw_mu&#45;&gt;sw_obs</title>
<path fill="none" stroke="black" d="M492.75,-203.15C494.14,-194.79 495.63,-185.77 497.07,-177.04"/>
<polygon fill="black" stroke="black" points="500.56,-177.41 498.73,-166.97 493.65,-176.27 500.56,-177.41"/>
</g>
<!-- ntg_mu -->
<g id="node4" class="node">
<title>ntg_mu</title>
<ellipse fill="none" stroke="black" cx="634.76" cy="-240.43" rx="49.49" ry="37.45"/>
<text text-anchor="middle" x="634.76" y="-251.73" font-family="Times,serif" font-size="14.00">ntg_mu</text>
<text text-anchor="middle" x="634.76" y="-236.73" font-family="Times,serif" font-size="14.00">~</text>
<text text-anchor="middle" x="634.76" y="-221.73" font-family="Times,serif" font-size="14.00">Beta</text>
</g>
<!-- ntg_mu&#45;&gt;stoiip_stb -->
<g id="edge7" class="edge">
<title>ntg_mu&#45;&gt;stoiip_stb</title>
<path fill="none" stroke="black" d="M592.95,-220.26C577.2,-213.78 558.95,-207.14 541.76,-202.95 425.4,-174.61 385.87,-217.08 273.76,-174.95 265.11,-171.7 256.54,-166.97 248.64,-161.79"/>
<polygon fill="black" stroke="black" points="250.57,-158.87 240.36,-156.05 246.59,-164.62 250.57,-158.87"/>
</g>
<!-- net_to_gross_obs -->
<g id="node10" class="node">
<title>net_to_gross_obs</title>
<ellipse fill="lightgrey" stroke="black" cx="669.76" cy="-129.48" rx="97.66" ry="37.45"/>
<text text-anchor="middle" x="669.76" y="-140.78" font-family="Times,serif" font-size="14.00">net_to_gross_obs</text>
<text text-anchor="middle" x="669.76" y="-125.78" font-family="Times,serif" font-size="14.00">~</text>
<text text-anchor="middle" x="669.76" y="-110.78" font-family="Times,serif" font-size="14.00">Normal</text>
</g>
<!-- ntg_mu&#45;&gt;net_to_gross_obs -->
<g id="edge3" class="edge">
<title>ntg_mu&#45;&gt;net_to_gross_obs</title>
<path fill="none" stroke="black" d="M646.22,-203.75C649,-195.1 652.02,-185.71 654.93,-176.65"/>
<polygon fill="black" stroke="black" points="658.31,-177.57 658.03,-166.98 651.64,-175.43 658.31,-177.57"/>
</g>
<!-- stoiip_mmbbl -->
<g id="node5" class="node">
<title>stoiip_mmbbl</title>
<polygon fill="none" stroke="black" points="267.76,-53 153.76,-53 153.76,0 267.76,0 267.76,-53"/>
<text text-anchor="middle" x="210.76" y="-37.8" font-family="Times,serif" font-size="14.00">stoiip_mmbbl</text>
<text text-anchor="middle" x="210.76" y="-22.8" font-family="Times,serif" font-size="14.00">~</text>
<text text-anchor="middle" x="210.76" y="-7.8" font-family="Times,serif" font-size="14.00">Deterministic</text>
</g>
<!-- stoiip_stb&#45;&gt;stoiip_mmbbl -->
<g id="edge9" class="edge">
<title>stoiip_stb&#45;&gt;stoiip_mmbbl</title>
<path fill="none" stroke="black" d="M210.76,-102.73C210.76,-90.75 210.76,-76.29 210.76,-63.26"/>
<polygon fill="black" stroke="black" points="214.26,-63.19 210.76,-53.19 207.26,-63.19 214.26,-63.19"/>
</g>
<!-- grv_acft -->
<g id="node7" class="node">
<title>grv_acft</title>
<ellipse fill="none" stroke="black" cx="65.76" cy="-240.43" rx="65.52" ry="37.45"/>
<text text-anchor="middle" x="65.76" y="-251.73" font-family="Times,serif" font-size="14.00">grv_acft</text>
<text text-anchor="middle" x="65.76" y="-236.73" font-family="Times,serif" font-size="14.00">~</text>
<text text-anchor="middle" x="65.76" y="-221.73" font-family="Times,serif" font-size="14.00">Lognormal</text>
</g>
<!-- grv_acft&#45;&gt;stoiip_stb -->
<g id="edge8" class="edge">
<title>grv_acft&#45;&gt;stoiip_stb</title>
<path fill="none" stroke="black" d="M105,-209.95C124.61,-195.21 148.36,-177.36 168.38,-162.32"/>
<polygon fill="black" stroke="black" points="170.54,-165.08 176.43,-156.27 166.33,-159.48 170.54,-165.08"/>
</g>
</g>
</svg>
